<svg width="20" height="25" viewBox="0 0 20 25" fill="none" xmlns="http://www.w3.org/2000/svg">
<path d="M9.65888 12.2266C12.4828 12.2266 14.7722 9.48964 14.7722 6.11336C14.7722 2.737 14.0205 0 9.65888 0C5.29721 0 4.54541 2.737 4.54541 6.11336C4.54541 9.48964 6.83484 12.2266 9.65888 12.2266Z" fill="#D2D2D2"/>
<path d="M0.00100584 21.5609C-0.000736324 21.5029 0.000134757 21.355 0.00100584 21.5609V21.5609Z" fill="#D2D2D2"/>
<path d="M19.3169 21.7217C19.3178 21.3307 19.3197 21.6653 19.3169 21.7217V21.7217Z" fill="#D2D2D2"/>
<path d="M19.3056 21.3142C19.2109 15.4326 18.4305 13.7567 12.4587 12.6958C12.4587 12.6958 11.6181 13.7502 9.65881 13.7502C7.69949 13.7502 6.85872 12.6958 6.85872 12.6958C0.952091 13.7451 0.124242 15.3962 0.015391 21.1231C0.00646523 21.5907 0.00232891 21.6153 0.000732422 21.561C0.00109526 21.6627 0.0015305 21.8509 0.0015305 22.1789C0.0015305 22.1789 1.42327 25.0001 9.65881 25.0001C17.8942 25.0001 19.3161 22.1789 19.3161 22.1789C19.3161 21.9682 19.3162 21.8216 19.3165 21.7219C19.3149 21.7554 19.3117 21.6904 19.3056 21.3142Z" fill="#D2D2D2"/>
</svg>
