<svg width="25" height="25" viewBox="0 0 25 25" fill="none" xmlns="http://www.w3.org/2000/svg">
<g clip-path="url(#clip0_2_915)">
<path d="M24.5801 11.1762L13.3635 0.955639C12.8711 0.506958 12.1287 0.507007 11.6366 0.95559L0.419826 11.1763C0.0254415 11.5356 -0.104832 12.0894 0.0878438 12.5869C0.280568 13.0844 0.749805 13.4058 1.28335 13.4058H3.07485V23.6461C3.07485 24.0521 3.40405 24.3813 3.81005 24.3813H9.95819C10.3642 24.3813 10.6934 24.0521 10.6934 23.6461V17.4285H14.3068V23.6461C14.3068 24.0521 14.636 24.3813 15.042 24.3813H21.1898C21.5958 24.3813 21.925 24.0522 21.925 23.6461V13.4058H23.7169C24.2503 13.4058 24.7196 13.0843 24.9124 12.5869C25.1048 12.0893 24.9745 11.5356 24.5801 11.1762Z" fill="#2DDA93"/>
</g>
<defs>
<clipPath id="clip0_2_915">
<rect width="25" height="25" fill="white"/>
</clipPath>
</defs>
</svg>
